<svg xmlns="http://www.w3.org/2000/svg" viewBox="0 0 73.89 28.35"><defs><style>.cls-1{fill:#0000b4;}.cls-2{fill:none;}.cls-3{fill:#ef5323;}</style></defs><g id="Layer_2" data-name="Layer 2"><g id="Layer_1-2" data-name="Layer 1"><path class="cls-1" d="M47.44,13.12H43.3l-1.75,2L38.62,18.4l0,0-.75-2.09c-.16-.51-.33-1-.49-1.53s-.36-1.12-.53-1.68H29.89l-3.55,3.28L23,19.46l1.7-6.34H8.21a8.73,8.73,0,0,0-1.33.11,4.47,4.47,0,0,0-3.23,2.25A9.86,9.86,0,0,0,2.74,18a5.69,5.69,0,0,0-.24,2.14,1.82,1.82,0,0,0,1.14,1.53A4.63,4.63,0,0,0,5.52,22h3a5.61,5.61,0,0,1,.86.06,1.33,1.33,0,0,1,1,.44,1.17,1.17,0,0,1,.21.75,1.38,1.38,0,0,1-1,1.36.58.58,0,0,1-.18,0H.69L0,28.11H0v.06H10.12a8.32,8.32,0,0,0,1.18-.08,4.46,4.46,0,0,0,2-.8,6.82,6.82,0,0,0,1.88-1.62l.46-.56-.82,3.06h5.86c.27-1,.53-1.94.78-2.9l.86-3.16L23,23.17l.08.14.37.67,2.28,4.19h5.77l-.52-1q-1.65-3-3.32-6.09a.75.75,0,0,1,.17-1l2-1.82L32,16.22l.28.56.07.13.31.74,1.86,4.4a.94.94,0,0,1,0,.6c-.28,1.08-.57,2.16-.86,3.23l-.61,2.29H39c.51-1.93,1-3.86,1.54-5.78a1.17,1.17,0,0,1,.25-.45c.91-1,1.83-1.93,2.74-2.89l5.61-5.93ZM16.5,21.92l-.15-.54a3.09,3.09,0,0,0-3.11-2.23H8.73A1.87,1.87,0,0,1,8.31,19l-.05,0,0,0a1,1,0,0,1-.43-.79,1.76,1.76,0,0,1,1-1.73.94.94,0,0,1,.3-.07H18Z"/><polygon class="cls-1" points="48.56 5.32 49.12 9.85 65.13 0 48.56 5.32"/><path class="cls-2" d="M9.13,16.39h0a.94.94,0,0,0-.3.07,1.76,1.76,0,0,0-1,1.73,1,1,0,0,0,.43.79l0,0,.05,0a1.87,1.87,0,0,0,.42.11h4.51a3.09,3.09,0,0,1,3.11,2.23l.15.54L18,16.38H9.13Z"/><polygon class="cls-3" points="18.82 13.12 17.99 16.4 24.73 13.12 18.82 13.12"/><polygon class="cls-3" points="50.3 6.96 65.13 0 54.7 10.2 50.3 6.96"/><polygon class="cls-3" points="48.56 5.32 45.04 2.44 65.13 0 48.56 5.32"/><path class="cls-1" d="M51.05,28a.26.26,0,0,1-.07.11.53.53,0,0,1-.15.08,1.33,1.33,0,0,1-.26.05h-.78a1.11,1.11,0,0,1-.24-.05.17.17,0,0,1-.1-.08.14.14,0,0,1,0-.11l.91-3.38a2.2,2.2,0,0,0,.08-.53,1,1,0,0,0,0-.4.64.64,0,0,0-.21-.27.74.74,0,0,0-.38-.09,1.25,1.25,0,0,0-.65.23,5.32,5.32,0,0,0-.81.65l-1,3.79a.24.24,0,0,1-.06.11.48.48,0,0,1-.16.08l-.25.05h-.78a1,1,0,0,1-.23-.05.2.2,0,0,1-.11-.08.14.14,0,0,1,0-.11l.91-3.38a2.2,2.2,0,0,0,.08-.53,1,1,0,0,0-.05-.4.51.51,0,0,0-.21-.27.74.74,0,0,0-.38-.09,1.25,1.25,0,0,0-.65.23,4.86,4.86,0,0,0-.8.65l-1,3.79a.19.19,0,0,1-.07.11.35.35,0,0,1-.15.08,1.33,1.33,0,0,1-.26.05h-.78a.89.89,0,0,1-.23-.05A.2.2,0,0,1,42,28.1.14.14,0,0,1,42,28l1.53-5.7a.2.2,0,0,1,.06-.11.24.24,0,0,1,.14-.08.65.65,0,0,1,.22-.05l.34,0,.33,0a.4.4,0,0,1,.19.05c.05,0,.08,0,.09.08a.2.2,0,0,1,0,.11L44.7,23a5.24,5.24,0,0,1,1.15-.77,2.46,2.46,0,0,1,1-.26,2.15,2.15,0,0,1,.61.08,1.34,1.34,0,0,1,.45.21,1,1,0,0,1,.29.33,1.75,1.75,0,0,1,.16.42,6,6,0,0,1,.62-.47,4.21,4.21,0,0,1,.57-.32,3.42,3.42,0,0,1,.53-.19,2.22,2.22,0,0,1,.51-.06,2,2,0,0,1,.91.19,1.25,1.25,0,0,1,.49.53,1.66,1.66,0,0,1,.13.77,4.08,4.08,0,0,1-.15.93Z"/><path class="cls-1" d="M58.3,25a.77.77,0,0,1-.24.43.59.59,0,0,1-.4.15H54.19a2,2,0,0,0-.09.66.89.89,0,0,0,.14.5.81.81,0,0,0,.4.32,1.9,1.9,0,0,0,.68.11,4.34,4.34,0,0,0,.76-.06,5.75,5.75,0,0,0,.59-.14l.42-.13a.83.83,0,0,1,.27-.06.15.15,0,0,1,.09,0s0,0,0,.08a.47.47,0,0,1,0,.16,2.32,2.32,0,0,1-.06.27c0,.09-.05.17-.07.24s-.05.12-.07.17a.41.41,0,0,1-.07.11.28.28,0,0,1-.09.1.91.91,0,0,1-.26.12l-.51.15c-.21,0-.44.09-.69.13a7,7,0,0,1-.81.05,3.68,3.68,0,0,1-1.28-.19,1.67,1.67,0,0,1-.8-.58,1.79,1.79,0,0,1-.31-1,4.38,4.38,0,0,1,.19-1.39,5.25,5.25,0,0,1,.56-1.37,4.14,4.14,0,0,1,.85-1,3.47,3.47,0,0,1,1.09-.65,3.63,3.63,0,0,1,1.28-.23,2.78,2.78,0,0,1,1.17.21,1.52,1.52,0,0,1,.68.59,1.77,1.77,0,0,1,.24.88,3.78,3.78,0,0,1-.15,1.11Zm-1.43-.46a1.47,1.47,0,0,0,0-1.06.78.78,0,0,0-.79-.39,1.35,1.35,0,0,0-.57.12,1.38,1.38,0,0,0-.46.31,2,2,0,0,0-.35.45,2.87,2.87,0,0,0-.24.57Z"/><path class="cls-1" d="M63.83,28a.24.24,0,0,1-.06.11.24.24,0,0,1-.13.08.65.65,0,0,1-.22.05h-.66a.48.48,0,0,1-.19-.05.16.16,0,0,1-.1-.08.2.2,0,0,1,0-.11l.17-.64a5.41,5.41,0,0,1-1.12.74,2.71,2.71,0,0,1-1.14.26,1.83,1.83,0,0,1-1-.25,1.49,1.49,0,0,1-.56-.68,2.43,2.43,0,0,1-.14-1,6.06,6.06,0,0,1,.19-1.21,7,7,0,0,1,.53-1.36,4.36,4.36,0,0,1,.76-1,3.25,3.25,0,0,1,.95-.66,2.87,2.87,0,0,1,1.14-.23,1.57,1.57,0,0,1,.81.2,2,2,0,0,1,.62.57l.83-3.09a.19.19,0,0,1,.07-.11.35.35,0,0,1,.15-.09,1.33,1.33,0,0,1,.26,0,2.24,2.24,0,0,1,.39,0,2.18,2.18,0,0,1,.39,0,1,1,0,0,1,.23,0,.22.22,0,0,1,.1.09.14.14,0,0,1,0,.11Zm-.57-3.81a2.7,2.7,0,0,0-.49-.67.88.88,0,0,0-.6-.23,1.18,1.18,0,0,0-.58.16,1.58,1.58,0,0,0-.48.42,4.08,4.08,0,0,0-.36.58,4.38,4.38,0,0,0-.24.66,4.51,4.51,0,0,0-.13.7,2,2,0,0,0,0,.61.79.79,0,0,0,.23.42.73.73,0,0,0,.51.16,1.26,1.26,0,0,0,.33,0,1.14,1.14,0,0,0,.36-.16,2.78,2.78,0,0,0,.42-.28c.14-.12.31-.26.49-.43Z"/><path class="cls-1" d="M66.67,28a.41.41,0,0,1-.07.11.53.53,0,0,1-.15.08l-.26.05h-.78a1.11,1.11,0,0,1-.24-.05.24.24,0,0,1-.11-.08.14.14,0,0,1,0-.11l1.52-5.69a.19.19,0,0,1,.07-.11.49.49,0,0,1,.15-.09l.26-.05.4,0,.38,0a.89.89,0,0,1,.23.05.26.26,0,0,1,.11.09.14.14,0,0,1,0,.11Zm2.16-7.63a1.22,1.22,0,0,1-.38.67,1.32,1.32,0,0,1-.78.18c-.36,0-.59-.06-.68-.18s-.1-.33,0-.64a1.19,1.19,0,0,1,.38-.67,1.24,1.24,0,0,1,.78-.19c.36,0,.59.06.68.18S68.92,20.05,68.83,20.36Z"/><path class="cls-1" d="M72.73,28a.33.33,0,0,1-.1.14.81.81,0,0,1-.22.07l-.42,0-.41,0a.3.3,0,0,1-.16-.07.14.14,0,0,1,0-.14l.12-.46a3.71,3.71,0,0,1-1,.59,2.73,2.73,0,0,1-1,.21,2.51,2.51,0,0,1-.81-.12,1.28,1.28,0,0,1-.56-.35,1.13,1.13,0,0,1-.28-.58,1.76,1.76,0,0,1,.07-.8,2.35,2.35,0,0,1,.42-.87A2.51,2.51,0,0,1,69.1,25a3.81,3.81,0,0,1,1.05-.35,7.17,7.17,0,0,1,1.37-.11h.55l.1-.35a2.33,2.33,0,0,0,.07-.47.56.56,0,0,0-.09-.33.5.5,0,0,0-.28-.2,1.4,1.4,0,0,0-.5-.07,2.89,2.89,0,0,0-.74.09,5.47,5.47,0,0,0-.61.2l-.46.2a.76.76,0,0,1-.29.09.14.14,0,0,1-.11,0,.23.23,0,0,1-.06-.12.74.74,0,0,1,0-.21,1.68,1.68,0,0,1,.06-.27,1.37,1.37,0,0,1,.11-.31.6.6,0,0,1,.18-.21,1.49,1.49,0,0,1,.37-.2,3.54,3.54,0,0,1,.58-.21,6.37,6.37,0,0,1,.69-.16,4.74,4.74,0,0,1,.75-.06,4.22,4.22,0,0,1,1.11.13,1.43,1.43,0,0,1,.68.41,1.19,1.19,0,0,1,.26.7,3.62,3.62,0,0,1-.13,1Zm-.93-2.45h-.61a3.37,3.37,0,0,0-.68.06,1.87,1.87,0,0,0-.49.17,1,1,0,0,0-.33.28,1.21,1.21,0,0,0-.18.38.59.59,0,0,0,.08.56.68.68,0,0,0,.57.2,1.36,1.36,0,0,0,.67-.17,3.45,3.45,0,0,0,.71-.5Z"/></g></g></svg>